<?xml version="1.0" encoding="UTF-8" standalone="no"?>
<!DOCTYPE svg PUBLIC "-//W3C//DTD SVG 1.1//EN"
 "http://www.w3.org/Graphics/SVG/1.1/DTD/svg11.dtd">
<!-- Generated by graphviz version 2.26.3 (20100126.1600)
 -->
<!-- Title: controllers_diagram Pages: 1 -->
<svg width="500pt" height="243pt"
 viewBox="0.00 0.00 500.00 243.00" xmlns="http://www.w3.org/2000/svg" xmlns:xlink="http://www.w3.org/1999/xlink">
<g id="graph1" class="graph" transform="scale(1 1) rotate(0) translate(4 239)">
<title>controllers_diagram</title>
<polygon fill="white" stroke="white" points="-4,5 -4,-239 497,-239 497,5 -4,5"/>
<!-- _diagram_info -->
<g id="node1" class="node"><title>_diagram_info</title>
<text text-anchor="start" x="249" y="-218.3" font-family="Times Roman,serif" font-size="13.00">Controllers diagram</text>
<text text-anchor="start" x="249" y="-201.3" font-family="Times Roman,serif" font-size="13.00">Date: Sep 07 2013 &#45; 10:28</text>
<text text-anchor="start" x="249" y="-184.3" font-family="Times Roman,serif" font-size="13.00">Migration version: 20130907151758</text>
<text text-anchor="start" x="249" y="-167.3" font-family="Times Roman,serif" font-size="13.00">Generated by RailRoady 1.1.1</text>
<text text-anchor="start" x="249" y="-150.3" font-family="Times Roman,serif" font-size="13.00">http://railroady.prestonlee.com</text>
</g>
<!-- ApplicationController -->
<g id="node2" class="node"><title>ApplicationController</title>
<polyline fill="none" stroke="black" points="13,-1.52904 150,-1.52904 "/>
<path fill="none" stroke="black" d="M150,-1.52904C156,-1.52904 162,-7.52904 162,-13.529"/>
<polyline fill="none" stroke="black" points="162,-13.529 162,-89.529 "/>
<path fill="none" stroke="black" d="M162,-89.529C162,-95.529 156,-101.529 150,-101.529"/>
<polyline fill="none" stroke="black" points="150,-101.529 13,-101.529 "/>
<path fill="none" stroke="black" d="M13,-101.529C7,-101.529 1,-95.529 1,-89.529"/>
<polyline fill="none" stroke="black" points="1,-89.529 1,-13.529 "/>
<path fill="none" stroke="black" d="M1,-13.529C1,-7.52904 7,-1.52904 13,-1.52904"/>
<text text-anchor="middle" x="81.5" y="-84.929" font-family="Times Roman,serif" font-size="14.00">ApplicationController</text>
<polyline fill="none" stroke="black" points="1,-75.529 162,-75.529 "/>
<polyline fill="none" stroke="black" points="1,-51.529 162,-51.529 "/>
<polyline fill="none" stroke="black" points="1,-27.529 162,-27.529 "/>
<text text-anchor="start" x="9" y="-10.929" font-family="Times Roman,serif" font-size="14.00">_layout</text>
</g>
<!-- MasterController -->
<g id="node3" class="node"><title>MasterController</title>
<polyline fill="none" stroke="black" points="192.365,-1.5 300.365,-1.5 "/>
<path fill="none" stroke="black" d="M300.365,-1.5C306.365,-1.5 312.365,-7.5 312.365,-13.5"/>
<polyline fill="none" stroke="black" points="312.365,-13.5 312.365,-89.5 "/>
<path fill="none" stroke="black" d="M312.365,-89.5C312.365,-95.5 306.365,-101.5 300.365,-101.5"/>
<polyline fill="none" stroke="black" points="300.365,-101.5 192.365,-101.5 "/>
<path fill="none" stroke="black" d="M192.365,-101.5C186.365,-101.5 180.365,-95.5 180.365,-89.5"/>
<polyline fill="none" stroke="black" points="180.365,-89.5 180.365,-13.5 "/>
<path fill="none" stroke="black" d="M180.365,-13.5C180.365,-7.5 186.365,-1.5 192.365,-1.5"/>
<text text-anchor="middle" x="246.365" y="-84.9" font-family="Times Roman,serif" font-size="14.00">MasterController</text>
<polyline fill="none" stroke="black" points="180.365,-75.5 312.365,-75.5 "/>
<polyline fill="none" stroke="black" points="180.365,-51.5 312.365,-51.5 "/>
<polyline fill="none" stroke="black" points="180.365,-27.5 312.365,-27.5 "/>
<text text-anchor="start" x="188.365" y="-10.9" font-family="Times Roman,serif" font-size="14.00">_layout</text>
</g>
<!-- ApplicationController&#45;&gt;MasterController -->
<g id="edge2" class="edge"><title>ApplicationController&#45;&gt;MasterController</title>
<path fill="none" stroke="black" d="M162,-51.5149C168.049,-51.5138 174.112,-51.5127 180.058,-51.5117"/>
</g>
</g>
</svg>
