<?xml version="1.0" encoding="UTF-8" standalone="no"?>
<!DOCTYPE svg PUBLIC "-//W3C//DTD SVG 1.1//EN"
 "http://www.w3.org/Graphics/SVG/1.1/DTD/svg11.dtd">
<!-- Generated by graphviz version 2.26.3 (20100126.1600)
 -->
<!-- Title: models_diagram Pages: 1 -->
<svg width="1286pt" height="1074pt"
 viewBox="0.00 0.00 1286.00 1074.00" xmlns="http://www.w3.org/2000/svg" xmlns:xlink="http://www.w3.org/1999/xlink">
<g id="graph1" class="graph" transform="scale(1 1) rotate(0) translate(4 1070)">
<title>models_diagram</title>
<polygon fill="white" stroke="white" points="-4,5 -4,-1070 1283,-1070 1283,5 -4,5"/>
<!-- _diagram_info -->
<g id="node1" class="node"><title>_diagram_info</title>
<text text-anchor="start" x="426" y="-1049.8" font-family="Times Roman,serif" font-size="13.00">Models diagram</text>
<text text-anchor="start" x="426" y="-1032.8" font-family="Times Roman,serif" font-size="13.00">Date: Sep 07 2013 &#45; 10:28</text>
<text text-anchor="start" x="426" y="-1015.8" font-family="Times Roman,serif" font-size="13.00">Migration version: 20130907151758</text>
<text text-anchor="start" x="426" y="-998.8" font-family="Times Roman,serif" font-size="13.00">Generated by RailRoady 1.1.1</text>
<text text-anchor="start" x="426" y="-981.8" font-family="Times Roman,serif" font-size="13.00">http://railroady.prestonlee.com</text>
</g>
<!-- Master -->
<g id="node2" class="node"><title>Master</title>
<polyline fill="none" stroke="black" points="525.5,-721 712.5,-721 "/>
<path fill="none" stroke="black" d="M712.5,-721C718.5,-721 724.5,-727 724.5,-733"/>
<polyline fill="none" stroke="black" points="724.5,-733 724.5,-923 "/>
<path fill="none" stroke="black" d="M724.5,-923C724.5,-929 718.5,-935 712.5,-935"/>
<polyline fill="none" stroke="black" points="712.5,-935 525.5,-935 "/>
<path fill="none" stroke="black" d="M525.5,-935C519.5,-935 513.5,-929 513.5,-923"/>
<polyline fill="none" stroke="black" points="513.5,-923 513.5,-733 "/>
<path fill="none" stroke="black" d="M513.5,-733C513.5,-727 519.5,-721 525.5,-721"/>
<text text-anchor="middle" x="619" y="-918.4" font-family="Times Roman,serif" font-size="14.00">Master</text>
<polyline fill="none" stroke="black" points="513.5,-909 724.5,-909 "/>
<text text-anchor="start" x="521.5" y="-892.4" font-family="Times Roman,serif" font-size="14.00">id :integer</text>
<text text-anchor="start" x="521.5" y="-874.4" font-family="Times Roman,serif" font-size="14.00">name :string</text>
<text text-anchor="start" x="521.5" y="-856.4" font-family="Times Roman,serif" font-size="14.00">code :string</text>
<text text-anchor="start" x="521.5" y="-838.4" font-family="Times Roman,serif" font-size="14.00">description :text</text>
<text text-anchor="start" x="521.5" y="-820.4" font-family="Times Roman,serif" font-size="14.00">total_credits :integer</text>
<text text-anchor="start" x="521.5" y="-802.4" font-family="Times Roman,serif" font-size="14.00">max_duration :integer</text>
<text text-anchor="start" x="521.5" y="-784.4" font-family="Times Roman,serif" font-size="14.00">max_cred_semester :integer</text>
<text text-anchor="start" x="521.5" y="-766.4" font-family="Times Roman,serif" font-size="14.00">max_cred_intersem :integer</text>
<text text-anchor="start" x="521.5" y="-748.4" font-family="Times Roman,serif" font-size="14.00">created_at :datetime</text>
<text text-anchor="start" x="521.5" y="-730.4" font-family="Times Roman,serif" font-size="14.00">updated_at :datetime</text>
</g>
<!-- Registration -->
<g id="node4" class="node"><title>Registration</title>
<polyline fill="none" stroke="black" points="467.5,-235 674.5,-235 "/>
<path fill="none" stroke="black" d="M674.5,-235C680.5,-235 686.5,-241 686.5,-247"/>
<polyline fill="none" stroke="black" points="686.5,-247 686.5,-401 "/>
<path fill="none" stroke="black" d="M686.5,-401C686.5,-407 680.5,-413 674.5,-413"/>
<polyline fill="none" stroke="black" points="674.5,-413 467.5,-413 "/>
<path fill="none" stroke="black" d="M467.5,-413C461.5,-413 455.5,-407 455.5,-401"/>
<polyline fill="none" stroke="black" points="455.5,-401 455.5,-247 "/>
<path fill="none" stroke="black" d="M455.5,-247C455.5,-241 461.5,-235 467.5,-235"/>
<text text-anchor="middle" x="571" y="-396.4" font-family="Times Roman,serif" font-size="14.00">Registration</text>
<polyline fill="none" stroke="black" points="455.5,-387 686.5,-387 "/>
<text text-anchor="start" x="463.5" y="-370.4" font-family="Times Roman,serif" font-size="14.00">id :integer</text>
<text text-anchor="start" x="463.5" y="-352.4" font-family="Times Roman,serif" font-size="14.00">begin_date :date</text>
<text text-anchor="start" x="463.5" y="-334.4" font-family="Times Roman,serif" font-size="14.00">max_date_finish :date</text>
<text text-anchor="start" x="463.5" y="-316.4" font-family="Times Roman,serif" font-size="14.00">total_approved_credits :integer</text>
<text text-anchor="start" x="463.5" y="-298.4" font-family="Times Roman,serif" font-size="14.00">created_at :datetime</text>
<text text-anchor="start" x="463.5" y="-280.4" font-family="Times Roman,serif" font-size="14.00">updated_at :datetime</text>
<text text-anchor="start" x="463.5" y="-262.4" font-family="Times Roman,serif" font-size="14.00">user_id :integer</text>
<text text-anchor="start" x="463.5" y="-244.4" font-family="Times Roman,serif" font-size="14.00">master_id :integer</text>
</g>
<!-- Master&#45;&gt;Registration -->
<g id="edge6" class="edge"><title>Master&#45;&gt;Registration</title>
<path fill="none" stroke="#94b898" d="M608.016,-712.669C599.695,-625.3 588.382,-506.509 580.46,-423.331"/>
<ellipse fill="none" stroke="#94b898" cx="608.412" cy="-716.824" rx="4" ry="4"/>
<polygon fill="#94b898" stroke="#94b898" points="580.459,-423.323 583.991,-412.942 579.985,-418.346 579.511,-413.368 579.511,-413.368 579.511,-413.368 579.985,-418.346 575.032,-413.795 580.459,-423.323 580.459,-423.323"/>
</g>
<!-- Pensum -->
<g id="node5" class="node"><title>Pensum</title>
<polyline fill="none" stroke="black" points="829.5,-532 970.5,-532 "/>
<path fill="none" stroke="black" d="M970.5,-532C976.5,-532 982.5,-538 982.5,-544"/>
<polyline fill="none" stroke="black" points="982.5,-544 982.5,-626 "/>
<path fill="none" stroke="black" d="M982.5,-626C982.5,-632 976.5,-638 970.5,-638"/>
<polyline fill="none" stroke="black" points="970.5,-638 829.5,-638 "/>
<path fill="none" stroke="black" d="M829.5,-638C823.5,-638 817.5,-632 817.5,-626"/>
<polyline fill="none" stroke="black" points="817.5,-626 817.5,-544 "/>
<path fill="none" stroke="black" d="M817.5,-544C817.5,-538 823.5,-532 829.5,-532"/>
<text text-anchor="middle" x="900" y="-621.4" font-family="Times Roman,serif" font-size="14.00">Pensum</text>
<polyline fill="none" stroke="black" points="817.5,-612 982.5,-612 "/>
<text text-anchor="start" x="825.5" y="-595.4" font-family="Times Roman,serif" font-size="14.00">id :integer</text>
<text text-anchor="start" x="825.5" y="-577.4" font-family="Times Roman,serif" font-size="14.00">state :string</text>
<text text-anchor="start" x="825.5" y="-559.4" font-family="Times Roman,serif" font-size="14.00">created_at :datetime</text>
<text text-anchor="start" x="825.5" y="-541.4" font-family="Times Roman,serif" font-size="14.00">updated_at :datetime</text>
</g>
<!-- Master&#45;&gt;Pensum -->
<g id="edge2" class="edge"><title>Master&#45;&gt;Pensum</title>
<path fill="none" stroke="#311ad7" d="M731.169,-731C764.833,-701.888 800.761,-670.819 830.782,-644.858"/>
<ellipse fill="none" stroke="#311ad7" cx="727.859" cy="-733.862" rx="4.00002" ry="4.00002"/>
<polygon fill="#311ad7" stroke="#311ad7" points="831.119,-644.566 841.626,-641.429 834.901,-641.296 838.683,-638.025 838.683,-638.025 838.683,-638.025 834.901,-641.296 835.739,-634.622 831.119,-644.566 831.119,-644.566"/>
</g>
<!-- User -->
<g id="node6" class="node"><title>User</title>
<polyline fill="none" stroke="black" points="305.5,-487 446.5,-487 "/>
<path fill="none" stroke="black" d="M446.5,-487C452.5,-487 458.5,-493 458.5,-499"/>
<polyline fill="none" stroke="black" points="458.5,-499 458.5,-671 "/>
<path fill="none" stroke="black" d="M458.5,-671C458.5,-677 452.5,-683 446.5,-683"/>
<polyline fill="none" stroke="black" points="446.5,-683 305.5,-683 "/>
<path fill="none" stroke="black" d="M305.5,-683C299.5,-683 293.5,-677 293.5,-671"/>
<polyline fill="none" stroke="black" points="293.5,-671 293.5,-499 "/>
<path fill="none" stroke="black" d="M293.5,-499C293.5,-493 299.5,-487 305.5,-487"/>
<text text-anchor="middle" x="376" y="-666.4" font-family="Times Roman,serif" font-size="14.00">User</text>
<polyline fill="none" stroke="black" points="293.5,-657 458.5,-657 "/>
<text text-anchor="start" x="301.5" y="-640.4" font-family="Times Roman,serif" font-size="14.00">id :integer</text>
<text text-anchor="start" x="301.5" y="-622.4" font-family="Times Roman,serif" font-size="14.00">name :string</text>
<text text-anchor="start" x="301.5" y="-604.4" font-family="Times Roman,serif" font-size="14.00">code :string</text>
<text text-anchor="start" x="301.5" y="-586.4" font-family="Times Roman,serif" font-size="14.00">email :string</text>
<text text-anchor="start" x="301.5" y="-568.4" font-family="Times Roman,serif" font-size="14.00">gender :string</text>
<text text-anchor="start" x="301.5" y="-550.4" font-family="Times Roman,serif" font-size="14.00">role_id :integer</text>
<text text-anchor="start" x="301.5" y="-532.4" font-family="Times Roman,serif" font-size="14.00">born_date :date</text>
<text text-anchor="start" x="301.5" y="-514.4" font-family="Times Roman,serif" font-size="14.00">created_at :datetime</text>
<text text-anchor="start" x="301.5" y="-496.4" font-family="Times Roman,serif" font-size="14.00">updated_at :datetime</text>
</g>
<!-- Master&#45;&gt;User -->
<g id="edge8" class="edge"><title>Master&#45;&gt;User</title>
<path fill="none" stroke="#5acc50" d="M506.157,-715.157C492.682,-701.682 479.063,-688.063 465.97,-674.97"/>
<polygon fill="#5acc50" stroke="#5acc50" points="506.406,-715.406 510.295,-725.659 509.941,-718.941 513.477,-722.477 513.477,-722.477 513.477,-722.477 509.941,-718.941 516.659,-719.295 506.406,-715.406 506.406,-715.406"/>
<polygon fill="#5acc50" stroke="#5acc50" points="465.825,-674.825 461.936,-664.572 462.29,-671.29 458.754,-667.754 458.754,-667.754 458.754,-667.754 462.29,-671.29 455.572,-670.936 465.825,-674.825 465.825,-674.825"/>
</g>
<!-- Course -->
<g id="node9" class="node"><title>Course</title>
<polyline fill="none" stroke="black" points="854,-199 1008,-199 "/>
<path fill="none" stroke="black" d="M1008,-199C1014,-199 1020,-205 1020,-211"/>
<polyline fill="none" stroke="black" points="1020,-211 1020,-437 "/>
<path fill="none" stroke="black" d="M1020,-437C1020,-443 1014,-449 1008,-449"/>
<polyline fill="none" stroke="black" points="1008,-449 854,-449 "/>
<path fill="none" stroke="black" d="M854,-449C848,-449 842,-443 842,-437"/>
<polyline fill="none" stroke="black" points="842,-437 842,-211 "/>
<path fill="none" stroke="black" d="M842,-211C842,-205 848,-199 854,-199"/>
<text text-anchor="middle" x="931" y="-432.4" font-family="Times Roman,serif" font-size="14.00">Course</text>
<polyline fill="none" stroke="black" points="842,-423 1020,-423 "/>
<text text-anchor="start" x="850" y="-406.4" font-family="Times Roman,serif" font-size="14.00">id :integer</text>
<text text-anchor="start" x="850" y="-388.4" font-family="Times Roman,serif" font-size="14.00">name :string</text>
<text text-anchor="start" x="850" y="-370.4" font-family="Times Roman,serif" font-size="14.00">description :text</text>
<text text-anchor="start" x="850" y="-352.4" font-family="Times Roman,serif" font-size="14.00">code :string</text>
<text text-anchor="start" x="850" y="-334.4" font-family="Times Roman,serif" font-size="14.00">credits :integer</text>
<text text-anchor="start" x="850" y="-316.4" font-family="Times Roman,serif" font-size="14.00">max_students :integer</text>
<text text-anchor="start" x="850" y="-298.4" font-family="Times Roman,serif" font-size="14.00">min_students :integer</text>
<text text-anchor="start" x="850" y="-280.4" font-family="Times Roman,serif" font-size="14.00">created_at :datetime</text>
<text text-anchor="start" x="850" y="-262.4" font-family="Times Roman,serif" font-size="14.00">updated_at :datetime</text>
<text text-anchor="start" x="850" y="-244.4" font-family="Times Roman,serif" font-size="14.00">course_type_id :integer</text>
<text text-anchor="start" x="850" y="-226.4" font-family="Times Roman,serif" font-size="14.00">master_id :integer</text>
<text text-anchor="start" x="850" y="-208.4" font-family="Times Roman,serif" font-size="14.00">pensum_id :integer</text>
</g>
<!-- Master&#45;&gt;Course -->
<g id="edge4" class="edge"><title>Master&#45;&gt;Course</title>
<path fill="none" stroke="#560c1f" d="M677.595,-713.323C713.347,-645.8 761.237,-559.496 809,-486 817.421,-473.043 826.54,-459.766 835.871,-446.662"/>
<ellipse fill="none" stroke="#560c1f" cx="675.605" cy="-717.091" rx="4.00002" ry="4.00002"/>
<polygon fill="#560c1f" stroke="#560c1f" points="835.876,-446.655 845.361,-441.151 838.79,-442.592 841.704,-438.528 841.704,-438.528 841.704,-438.528 838.79,-442.592 838.047,-435.906 835.876,-446.655 835.876,-446.655"/>
</g>
<!-- Prerequisite -->
<g id="node3" class="node"><title>Prerequisite</title>
<polyline fill="none" stroke="black" points="516.5,-28 657.5,-28 "/>
<path fill="none" stroke="black" d="M657.5,-28C663.5,-28 669.5,-34 669.5,-40"/>
<polyline fill="none" stroke="black" points="669.5,-40 669.5,-122 "/>
<path fill="none" stroke="black" d="M669.5,-122C669.5,-128 663.5,-134 657.5,-134"/>
<polyline fill="none" stroke="black" points="657.5,-134 516.5,-134 "/>
<path fill="none" stroke="black" d="M516.5,-134C510.5,-134 504.5,-128 504.5,-122"/>
<polyline fill="none" stroke="black" points="504.5,-122 504.5,-40 "/>
<path fill="none" stroke="black" d="M504.5,-40C504.5,-34 510.5,-28 516.5,-28"/>
<text text-anchor="middle" x="587" y="-117.4" font-family="Times Roman,serif" font-size="14.00">Prerequisite</text>
<polyline fill="none" stroke="black" points="504.5,-108 669.5,-108 "/>
<text text-anchor="start" x="512.5" y="-91.4" font-family="Times Roman,serif" font-size="14.00">id :integer</text>
<text text-anchor="start" x="512.5" y="-73.4" font-family="Times Roman,serif" font-size="14.00">course_id :integer</text>
<text text-anchor="start" x="512.5" y="-55.4" font-family="Times Roman,serif" font-size="14.00">created_at :datetime</text>
<text text-anchor="start" x="512.5" y="-37.4" font-family="Times Roman,serif" font-size="14.00">updated_at :datetime</text>
</g>
<!-- Pensum&#45;&gt;Course -->
<g id="edge16" class="edge"><title>Pensum&#45;&gt;Course</title>
<path fill="none" stroke="#9f2c92" d="M907.271,-523.78C909.594,-504.227 912.263,-481.751 914.955,-459.091"/>
<ellipse fill="none" stroke="#9f2c92" cx="906.783" cy="-527.896" rx="4.00001" ry="4.00001"/>
<polygon fill="#9f2c92" stroke="#9f2c92" points="914.97,-458.958 920.619,-449.558 915.56,-453.993 916.15,-449.028 916.15,-449.028 916.15,-449.028 915.56,-453.993 911.681,-448.497 914.97,-458.958 914.97,-458.958"/>
</g>
<!-- User&#45;&gt;Registration -->
<g id="edge24" class="edge"><title>User&#45;&gt;Registration</title>
<path fill="none" stroke="#4076c6" d="M454.329,-480.159C468.838,-460.74 483.937,-440.531 498.27,-421.346"/>
<ellipse fill="none" stroke="#4076c6" cx="451.837" cy="-483.495" rx="4.00002" ry="4.00002"/>
<polygon fill="#4076c6" stroke="#4076c6" points="498.377,-421.203 507.967,-415.885 501.37,-417.197 504.362,-413.192 504.362,-413.192 504.362,-413.192 501.37,-417.197 500.757,-410.498 498.377,-421.203 498.377,-421.203"/>
</g>
<!-- Role -->
<g id="node7" class="node"><title>Role</title>
<polyline fill="none" stroke="black" points="11.5,-271 152.5,-271 "/>
<path fill="none" stroke="black" d="M152.5,-271C158.5,-271 164.5,-277 164.5,-283"/>
<polyline fill="none" stroke="black" points="164.5,-283 164.5,-365 "/>
<path fill="none" stroke="black" d="M164.5,-365C164.5,-371 158.5,-377 152.5,-377"/>
<polyline fill="none" stroke="black" points="152.5,-377 11.5,-377 "/>
<path fill="none" stroke="black" d="M11.5,-377C5.5,-377 -0.5,-371 -0.5,-365"/>
<polyline fill="none" stroke="black" points="-0.5,-365 -0.5,-283 "/>
<path fill="none" stroke="black" d="M-0.5,-283C-0.5,-277 5.5,-271 11.5,-271"/>
<text text-anchor="middle" x="82" y="-360.4" font-family="Times Roman,serif" font-size="14.00">Role</text>
<polyline fill="none" stroke="black" points="-0.5,-351 164.5,-351 "/>
<text text-anchor="start" x="7.5" y="-334.4" font-family="Times Roman,serif" font-size="14.00">id :integer</text>
<text text-anchor="start" x="7.5" y="-316.4" font-family="Times Roman,serif" font-size="14.00">name :string</text>
<text text-anchor="start" x="7.5" y="-298.4" font-family="Times Roman,serif" font-size="14.00">created_at :datetime</text>
<text text-anchor="start" x="7.5" y="-280.4" font-family="Times Roman,serif" font-size="14.00">updated_at :datetime</text>
</g>
<!-- User&#45;&gt;Role -->
<g id="edge26" class="edge"><title>User&#45;&gt;Role</title>
<path fill="none" stroke="#f3df72" d="M286.533,-540.177C246.428,-516.353 200.185,-484.814 164,-450 143.823,-430.587 125.052,-406.211 110.461,-384.083"/>
<ellipse fill="none" stroke="#f3df72" cx="289.98" cy="-542.205" rx="4.00002" ry="4.00002"/>
<ellipse fill="#f3df72" stroke="#f3df72" cx="108.243" cy="-380.655" rx="4.00002" ry="4.00002"/>
</g>
<!-- UserCourse -->
<g id="node24" class="node"><title>UserCourse</title>
<ellipse fill="none" stroke="black" cx="250" cy="-324" rx="67.8823" ry="18.3848"/>
<text text-anchor="middle" x="250" y="-320.4" font-family="Times Roman,serif" font-size="14.00">UserCourse</text>
</g>
<!-- User&#45;&gt;UserCourse -->
<g id="edge20" class="edge"><title>User&#45;&gt;UserCourse</title>
<path fill="none" stroke="#3eee51" d="M325.064,-479.49C302.688,-433.139 278.202,-382.419 263.476,-351.914"/>
<ellipse fill="none" stroke="#3eee51" cx="326.805" cy="-483.097" rx="4.00002" ry="4.00002"/>
<polygon fill="#3eee51" stroke="#3eee51" points="263.4,-351.756 263.105,-340.794 261.226,-347.254 259.052,-342.751 259.052,-342.751 259.052,-342.751 261.226,-347.254 255,-344.707 263.4,-351.756 263.4,-351.756"/>
</g>
<!-- Request -->
<g id="node26" class="node"><title>Request</title>
<ellipse fill="none" stroke="black" cx="387" cy="-324" rx="50.9117" ry="18.3848"/>
<text text-anchor="middle" x="387" y="-320.4" font-family="Times Roman,serif" font-size="14.00">Request</text>
</g>
<!-- User&#45;&gt;Request -->
<g id="edge22" class="edge"><title>User&#45;&gt;Request</title>
<path fill="none" stroke="#3d0fe8" d="M380.487,-478.544C382.405,-433.019 384.494,-383.449 385.776,-353.043"/>
<ellipse fill="none" stroke="#3d0fe8" cx="380.311" cy="-482.703" rx="4" ry="4"/>
<polygon fill="#3d0fe8" stroke="#3d0fe8" points="385.789,-352.742 390.706,-342.94 385.999,-347.746 386.21,-342.751 386.21,-342.751 386.21,-342.751 385.999,-347.746 381.714,-342.561 385.789,-352.742 385.789,-352.742"/>
</g>
<!-- Role&#45;&gt;User -->
<g id="edge32" class="edge"><title>Role&#45;&gt;User</title>
<path fill="none" stroke="#484668" d="M128.287,-385.517C143.861,-407.259 162.258,-431.006 182,-450 212.648,-479.487 250.513,-506.625 284.662,-528.715"/>
<polygon fill="#484668" stroke="#484668" points="128.243,-385.455 126.131,-374.694 125.351,-381.376 122.46,-377.297 122.46,-377.297 122.46,-377.297 125.351,-381.376 118.789,-379.899 128.243,-385.455 128.243,-385.455"/>
<polygon fill="#484668" stroke="#484668" points="284.837,-528.827 290.83,-538.01 289.047,-531.524 293.257,-534.221 293.257,-534.221 293.257,-534.221 289.047,-531.524 295.685,-530.431 284.837,-528.827 284.837,-528.827"/>
</g>
<!-- UserRole -->
<g id="node31" class="node"><title>UserRole</title>
<ellipse fill="none" stroke="black" cx="82" cy="-81" rx="53.9477" ry="18.3848"/>
<text text-anchor="middle" x="82" y="-77.4" font-family="Times Roman,serif" font-size="14.00">UserRole</text>
</g>
<!-- Role&#45;&gt;UserRole -->
<g id="edge30" class="edge"><title>Role&#45;&gt;UserRole</title>
<path fill="none" stroke="#452601" d="M82,-262.873C82,-213.965 82,-147.558 82,-110.009"/>
<ellipse fill="none" stroke="#452601" cx="82" cy="-266.973" rx="4" ry="4"/>
<polygon fill="#452601" stroke="#452601" points="82.0001,-109.777 86.5,-99.777 82,-104.777 82,-99.777 82,-99.777 82,-99.777 82,-104.777 77.5,-99.7771 82.0001,-109.777 82.0001,-109.777"/>
</g>
<!-- CourseType -->
<g id="node8" class="node"><title>CourseType</title>
<polyline fill="none" stroke="black" points="698.5,-19 839.5,-19 "/>
<path fill="none" stroke="black" d="M839.5,-19C845.5,-19 851.5,-25 851.5,-31"/>
<polyline fill="none" stroke="black" points="851.5,-31 851.5,-131 "/>
<path fill="none" stroke="black" d="M851.5,-131C851.5,-137 845.5,-143 839.5,-143"/>
<polyline fill="none" stroke="black" points="839.5,-143 698.5,-143 "/>
<path fill="none" stroke="black" d="M698.5,-143C692.5,-143 686.5,-137 686.5,-131"/>
<polyline fill="none" stroke="black" points="686.5,-131 686.5,-31 "/>
<path fill="none" stroke="black" d="M686.5,-31C686.5,-25 692.5,-19 698.5,-19"/>
<text text-anchor="middle" x="769" y="-126.4" font-family="Times Roman,serif" font-size="14.00">CourseType</text>
<polyline fill="none" stroke="black" points="686.5,-117 851.5,-117 "/>
<text text-anchor="start" x="694.5" y="-100.4" font-family="Times Roman,serif" font-size="14.00">id :integer</text>
<text text-anchor="start" x="694.5" y="-82.4" font-family="Times Roman,serif" font-size="14.00">name :string</text>
<text text-anchor="start" x="694.5" y="-64.4" font-family="Times Roman,serif" font-size="14.00">description :text</text>
<text text-anchor="start" x="694.5" y="-46.4" font-family="Times Roman,serif" font-size="14.00">created_at :datetime</text>
<text text-anchor="start" x="694.5" y="-28.4" font-family="Times Roman,serif" font-size="14.00">updated_at :datetime</text>
</g>
<!-- Course&#45;&gt;Prerequisite -->
<g id="edge40" class="edge"><title>Course&#45;&gt;Prerequisite</title>
<path fill="none" stroke="#ca97c8" d="M834.629,-264.485C775.631,-227.627 706.212,-183.377 678,-162 669.352,-155.448 660.517,-148.269 651.915,-140.978"/>
<ellipse fill="none" stroke="#ca97c8" cx="838.375" cy="-266.824" rx="4.00002" ry="4.00002"/>
<polygon fill="#ca97c8" stroke="#ca97c8" points="651.683,-140.778 647.025,-130.85 647.888,-137.521 644.094,-134.265 644.094,-134.265 644.094,-134.265 647.888,-137.521 641.163,-137.68 651.683,-140.778 651.683,-140.778"/>
</g>
<!-- Course&#45;&gt;CourseType -->
<g id="edge38" class="edge"><title>Course&#45;&gt;CourseType</title>
<path fill="none" stroke="#0bb2d5" d="M843.081,-192.122C833.376,-177.564 823.804,-163.206 814.928,-149.893"/>
<ellipse fill="none" stroke="#0bb2d5" cx="845.408" cy="-195.613" rx="4.00002" ry="4.00002"/>
<ellipse fill="#0bb2d5" stroke="#0bb2d5" cx="812.572" cy="-146.359" rx="4.00002" ry="4.00002"/>
</g>
<!-- PlannedPensum -->
<g id="node10" class="node"><title>PlannedPensum</title>
<polyline fill="none" stroke="black" points="880.5,-1 1023.5,-1 "/>
<path fill="none" stroke="black" d="M1023.5,-1C1029.5,-1 1035.5,-7 1035.5,-13"/>
<polyline fill="none" stroke="black" points="1035.5,-13 1035.5,-149 "/>
<path fill="none" stroke="black" d="M1035.5,-149C1035.5,-155 1029.5,-161 1023.5,-161"/>
<polyline fill="none" stroke="black" points="1023.5,-161 880.5,-161 "/>
<path fill="none" stroke="black" d="M880.5,-161C874.5,-161 868.5,-155 868.5,-149"/>
<polyline fill="none" stroke="black" points="868.5,-149 868.5,-13 "/>
<path fill="none" stroke="black" d="M868.5,-13C868.5,-7 874.5,-1 880.5,-1"/>
<text text-anchor="middle" x="952" y="-144.4" font-family="Times Roman,serif" font-size="14.00">PlannedPensum</text>
<polyline fill="none" stroke="black" points="868.5,-135 1035.5,-135 "/>
<text text-anchor="start" x="876.5" y="-118.4" font-family="Times Roman,serif" font-size="14.00">id :integer</text>
<text text-anchor="start" x="876.5" y="-100.4" font-family="Times Roman,serif" font-size="14.00">semester :string</text>
<text text-anchor="start" x="876.5" y="-82.4" font-family="Times Roman,serif" font-size="14.00">semester_type :string</text>
<text text-anchor="start" x="876.5" y="-64.4" font-family="Times Roman,serif" font-size="14.00">year :integer</text>
<text text-anchor="start" x="876.5" y="-46.4" font-family="Times Roman,serif" font-size="14.00">created_at :datetime</text>
<text text-anchor="start" x="876.5" y="-28.4" font-family="Times Roman,serif" font-size="14.00">updated_at :datetime</text>
<text text-anchor="start" x="876.5" y="-10.4" font-family="Times Roman,serif" font-size="14.00">user_id :integer</text>
</g>
<!-- Course&#45;&gt;PlannedPensum -->
<g id="edge42" class="edge"><title>Course&#45;&gt;PlannedPensum</title>
<path fill="none" stroke="#0323cf" d="M935.784,-190.858C936.385,-184.259 937.01,-177.706 937.65,-171.278"/>
<ellipse fill="none" stroke="#0323cf" cx="935.417" cy="-194.957" rx="4" ry="4"/>
<polygon fill="#0323cf" stroke="#0323cf" points="937.654,-171.239 943.146,-161.747 938.162,-166.265 938.669,-161.291 938.669,-161.291 938.669,-161.291 938.162,-166.265 934.192,-160.834 937.654,-171.239 937.654,-171.239"/>
</g>
<!-- SemesterRegistration -->
<g id="node11" class="node"><title>SemesterRegistration</title>
<polyline fill="none" stroke="black" points="1064.5,-1 1207.5,-1 "/>
<path fill="none" stroke="black" d="M1207.5,-1C1213.5,-1 1219.5,-7 1219.5,-13"/>
<polyline fill="none" stroke="black" points="1219.5,-13 1219.5,-149 "/>
<path fill="none" stroke="black" d="M1219.5,-149C1219.5,-155 1213.5,-161 1207.5,-161"/>
<polyline fill="none" stroke="black" points="1207.5,-161 1064.5,-161 "/>
<path fill="none" stroke="black" d="M1064.5,-161C1058.5,-161 1052.5,-155 1052.5,-149"/>
<polyline fill="none" stroke="black" points="1052.5,-149 1052.5,-13 "/>
<path fill="none" stroke="black" d="M1052.5,-13C1052.5,-7 1058.5,-1 1064.5,-1"/>
<text text-anchor="middle" x="1136" y="-144.4" font-family="Times Roman,serif" font-size="14.00">SemesterRegistration</text>
<polyline fill="none" stroke="black" points="1052.5,-135 1219.5,-135 "/>
<text text-anchor="start" x="1060.5" y="-118.4" font-family="Times Roman,serif" font-size="14.00">id :integer</text>
<text text-anchor="start" x="1060.5" y="-100.4" font-family="Times Roman,serif" font-size="14.00">semester :string</text>
<text text-anchor="start" x="1060.5" y="-82.4" font-family="Times Roman,serif" font-size="14.00">semester_type :string</text>
<text text-anchor="start" x="1060.5" y="-64.4" font-family="Times Roman,serif" font-size="14.00">year :integer</text>
<text text-anchor="start" x="1060.5" y="-46.4" font-family="Times Roman,serif" font-size="14.00">created_at :datetime</text>
<text text-anchor="start" x="1060.5" y="-28.4" font-family="Times Roman,serif" font-size="14.00">updated_at :datetime</text>
<text text-anchor="start" x="1060.5" y="-10.4" font-family="Times Roman,serif" font-size="14.00">user_id :integer</text>
</g>
<!-- Course&#45;&gt;SemesterRegistration -->
<g id="edge44" class="edge"><title>Course&#45;&gt;SemesterRegistration</title>
<path fill="none" stroke="#2ae8fc" d="M1025.39,-204.113C1035.33,-192.324 1045.37,-180.516 1055.13,-169.131"/>
<ellipse fill="none" stroke="#2ae8fc" cx="1022.74" cy="-207.266" rx="4.00002" ry="4.00002"/>
<polygon fill="#2ae8fc" stroke="#2ae8fc" points="1055.33,-168.905 1065.26,-164.256 1058.59,-165.114 1061.85,-161.322 1061.85,-161.322 1061.85,-161.322 1058.59,-165.114 1058.43,-158.389 1055.33,-168.905 1055.33,-168.905"/>
</g>
<!-- PlannedPensum&#45;&gt;Course -->
<g id="edge48" class="edge"><title>PlannedPensum&#45;&gt;Course</title>
<path fill="none" stroke="#5ee9ea" d="M950.89,-169.3C950.429,-175.683 949.929,-182.199 949.398,-188.769"/>
<ellipse fill="none" stroke="#5ee9ea" cx="951.173" cy="-165.281" rx="4" ry="4"/>
<polygon fill="#5ee9ea" stroke="#5ee9ea" points="949.381,-188.975 944.07,-198.569 948.968,-193.958 948.555,-198.941 948.555,-198.941 948.555,-198.941 948.968,-193.958 953.04,-199.313 949.381,-188.975 949.381,-188.975"/>
</g>
<!-- SemesterRegistration&#45;&gt;Course -->
<g id="edge52" class="edge"><title>SemesterRegistration&#45;&gt;Course</title>
<path fill="none" stroke="#45ceeb" d="M1069.43,-167.606C1055.76,-184.111 1041.11,-201.555 1026.64,-218.571"/>
<ellipse fill="none" stroke="#45ceeb" cx="1072.28" cy="-164.168" rx="4.00002" ry="4.00002"/>
<polygon fill="#45ceeb" stroke="#45ceeb" points="1026.61,-218.6 1016.7,-223.295 1023.37,-222.407 1020.13,-226.213 1020.13,-226.213 1020.13,-226.213 1023.37,-222.407 1023.56,-229.131 1026.61,-218.6 1026.61,-218.6"/>
</g>
<!-- StudentCourse -->
<g id="node12" class="node"><title>StudentCourse</title>
<polyline fill="none" stroke="black" points="1125.5,-748 1266.5,-748 "/>
<path fill="none" stroke="black" d="M1266.5,-748C1272.5,-748 1278.5,-754 1278.5,-760"/>
<polyline fill="none" stroke="black" points="1278.5,-760 1278.5,-896 "/>
<path fill="none" stroke="black" d="M1278.5,-896C1278.5,-902 1272.5,-908 1266.5,-908"/>
<polyline fill="none" stroke="black" points="1266.5,-908 1125.5,-908 "/>
<path fill="none" stroke="black" d="M1125.5,-908C1119.5,-908 1113.5,-902 1113.5,-896"/>
<polyline fill="none" stroke="black" points="1113.5,-896 1113.5,-760 "/>
<path fill="none" stroke="black" d="M1113.5,-760C1113.5,-754 1119.5,-748 1125.5,-748"/>
<text text-anchor="middle" x="1196" y="-891.4" font-family="Times Roman,serif" font-size="14.00">StudentCourse</text>
<polyline fill="none" stroke="black" points="1113.5,-882 1278.5,-882 "/>
<text text-anchor="start" x="1121.5" y="-865.4" font-family="Times Roman,serif" font-size="14.00">id :integer</text>
<text text-anchor="start" x="1121.5" y="-847.4" font-family="Times Roman,serif" font-size="14.00">state :string</text>
<text text-anchor="start" x="1121.5" y="-829.4" font-family="Times Roman,serif" font-size="14.00">inscription :date</text>
<text text-anchor="start" x="1121.5" y="-811.4" font-family="Times Roman,serif" font-size="14.00">created_at :datetime</text>
<text text-anchor="start" x="1121.5" y="-793.4" font-family="Times Roman,serif" font-size="14.00">updated_at :datetime</text>
<text text-anchor="start" x="1121.5" y="-775.4" font-family="Times Roman,serif" font-size="14.00">user_id :integer</text>
<text text-anchor="start" x="1121.5" y="-757.4" font-family="Times Roman,serif" font-size="14.00">course_id :integer</text>
</g>
<!-- ActiveRecord::Base -->
<g id="node17" class="node"><title>ActiveRecord::Base</title>
<ellipse fill="none" stroke="black" cx="790" cy="-1019" rx="103.945" ry="18.3848"/>
<text text-anchor="middle" x="790" y="-1015.4" font-family="Times Roman,serif" font-size="14.00">ActiveRecord::Base</text>
</g>
<!-- ActiveRecord::Base&#45;&gt;Master -->
<g id="edge10" class="edge"><title>ActiveRecord::Base&#45;&gt;Master</title>
<path fill="none" stroke="black" d="M773.604,-1000.69C759.476,-984.906 737.831,-960.729 715.17,-935.418"/>
</g>
<!-- ActiveRecord::Base&#45;&gt;Prerequisite -->
<g id="edge12" class="edge"><title>ActiveRecord::Base&#45;&gt;Prerequisite</title>
<path fill="none" stroke="black" d="M787.411,-1000.22C785.117,-983.409 781.719,-958.073 779,-936 758.823,-772.179 763.715,-348.076 695,-198 684.24,-174.5 666.933,-152.558 649.297,-134.172"/>
</g>
<!-- ActiveRecord::Base&#45;&gt;Registration -->
<g id="edge14" class="edge"><title>ActiveRecord::Base&#45;&gt;Registration</title>
<path fill="none" stroke="black" d="M753.24,-1001.65C731.451,-991.885 703.081,-980.075 677,-972 602.393,-948.901 554.245,-996.619 505,-936 441.534,-857.876 507.206,-563.352 546.331,-413.2"/>
</g>
<!-- ActiveRecord::Base&#45;&gt;Pensum -->
<g id="edge18" class="edge"><title>ActiveRecord::Base&#45;&gt;Pensum</title>
<path fill="none" stroke="black" d="M794.727,-1000.35C810.518,-938.049 861.838,-735.565 886.512,-638.217"/>
</g>
<!-- ActiveRecord::Base&#45;&gt;User -->
<g id="edge28" class="edge"><title>ActiveRecord::Base&#45;&gt;User</title>
<path fill="none" stroke="black" d="M753.841,-1001.56C732.02,-991.646 703.413,-979.71 677,-972 588.2,-946.08 540.385,-998.295 472,-936 402.062,-872.291 381.097,-763.011 375.741,-683.275"/>
</g>
<!-- ActiveRecord::Base&#45;&gt;Role -->
<g id="edge34" class="edge"><title>ActiveRecord::Base&#45;&gt;Role</title>
<path fill="none" stroke="black" d="M754.993,-1001.5C733.103,-991.298 704.025,-979.091 677,-972 611.84,-954.903 430.788,-975.196 376,-936 183.068,-797.973 111.783,-498.742 90.1164,-377.064"/>
</g>
<!-- ActiveRecord::Base&#45;&gt;CourseType -->
<g id="edge36" class="edge"><title>ActiveRecord::Base&#45;&gt;CourseType</title>
<path fill="none" stroke="black" d="M789.581,-1000.26C787.128,-890.719 774.609,-331.548 770.39,-143.097"/>
</g>
<!-- ActiveRecord::Base&#45;&gt;Course -->
<g id="edge46" class="edge"><title>ActiveRecord::Base&#45;&gt;Course</title>
<path fill="none" stroke="black" d="M806.601,-1000.44C848.212,-952.447 956.123,-818.596 991,-684 1013.07,-598.814 1006.53,-572.62 991,-486 988.831,-473.896 985.817,-461.514 982.285,-449.253"/>
</g>
<!-- ActiveRecord::Base&#45;&gt;PlannedPensum -->
<g id="edge50" class="edge"><title>ActiveRecord::Base&#45;&gt;PlannedPensum</title>
<path fill="none" stroke="black" d="M835.999,-1002.41C867.189,-988.96 907.119,-967.108 932,-936 1005.4,-844.233 989.812,-799.395 1012,-684 1052.81,-471.756 1091.02,-405.043 1029,-198 1025.23,-185.421 1019.63,-172.943 1013.13,-161.083"/>
</g>
<!-- ActiveRecord::Base&#45;&gt;SemesterRegistration -->
<g id="edge54" class="edge"><title>ActiveRecord::Base&#45;&gt;SemesterRegistration</title>
<path fill="none" stroke="black" d="M859.666,-1005.17C900.9,-993.468 950.978,-972.543 982,-936 1173.93,-709.919 1161.88,-326.741 1145.96,-161.16"/>
</g>
<!-- ActiveRecord::Base&#45;&gt;StudentCourse -->
<g id="edge56" class="edge"><title>ActiveRecord::Base&#45;&gt;StudentCourse</title>
<path fill="none" stroke="black" d="M878.589,-1009.16C943.725,-998.761 1032.32,-977.766 1100,-936 1112.38,-928.359 1124.08,-918.637 1134.77,-908.168"/>
</g>
</g>
</svg>
