<?xml version="1.0" encoding="UTF-8" standalone="no"?>
<!DOCTYPE svg PUBLIC "-//W3C//DTD SVG 1.1//EN"
 "http://www.w3.org/Graphics/SVG/1.1/DTD/svg11.dtd">
<!-- Generated by graphviz version 2.26.3 (20100126.1600)
 -->
<!-- Title: models_diagram Pages: 1 -->
<svg width="1246pt" height="398pt"
 viewBox="0.00 0.00 1246.00 398.00" xmlns="http://www.w3.org/2000/svg" xmlns:xlink="http://www.w3.org/1999/xlink">
<g id="graph1" class="graph" transform="scale(1 1) rotate(0) translate(4 394)">
<title>models_diagram</title>
<polygon fill="white" stroke="white" points="-4,5 -4,-394 1243,-394 1243,5 -4,5"/>
<!-- _diagram_info -->
<g id="node1" class="node"><title>_diagram_info</title>
<text text-anchor="start" x="227" y="-373.8" font-family="Times Roman,serif" font-size="13.00">Models diagram</text>
<text text-anchor="start" x="227" y="-356.8" font-family="Times Roman,serif" font-size="13.00">Date: Sep 07 2013 &#45; 10:28</text>
<text text-anchor="start" x="227" y="-339.8" font-family="Times Roman,serif" font-size="13.00">Migration version: 20130907151758</text>
<text text-anchor="start" x="227" y="-322.8" font-family="Times Roman,serif" font-size="13.00">Generated by RailRoady 1.1.1</text>
<text text-anchor="start" x="227" y="-305.8" font-family="Times Roman,serif" font-size="13.00">http://railroady.prestonlee.com</text>
</g>
<!-- Master -->
<g id="node2" class="node"><title>Master</title>
<ellipse fill="none" stroke="black" cx="451" cy="-241" rx="44.7575" ry="18.3848"/>
<text text-anchor="middle" x="451" y="-237.4" font-family="Times Roman,serif" font-size="14.00">Master</text>
</g>
<!-- Registration -->
<g id="node4" class="node"><title>Registration</title>
<ellipse fill="none" stroke="black" cx="426" cy="-93" rx="70.2092" ry="18.3848"/>
<text text-anchor="middle" x="426" y="-89.4" font-family="Times Roman,serif" font-size="14.00">Registration</text>
</g>
<!-- Master&#45;&gt;Registration -->
<g id="edge6" class="edge"><title>Master&#45;&gt;Registration</title>
<path fill="none" stroke="#3915e0" d="M446.44,-214.006C442.014,-187.801 435.32,-148.177 430.811,-121.479"/>
<ellipse fill="none" stroke="#3915e0" cx="447.167" cy="-218.312" rx="4.00001" ry="4.00001"/>
<polygon fill="#3915e0" stroke="#3915e0" points="430.806,-121.452 433.578,-110.843 429.973,-116.522 429.141,-111.592 429.141,-111.592 429.141,-111.592 429.973,-116.522 424.703,-112.342 430.806,-121.452 430.806,-121.452"/>
</g>
<!-- Pensum -->
<g id="node5" class="node"><title>Pensum</title>
<ellipse fill="none" stroke="black" cx="640" cy="-167" rx="50.2046" ry="18.3848"/>
<text text-anchor="middle" x="640" y="-163.4" font-family="Times Roman,serif" font-size="14.00">Pensum</text>
</g>
<!-- Master&#45;&gt;Pensum -->
<g id="edge2" class="edge"><title>Master&#45;&gt;Pensum</title>
<path fill="none" stroke="#13a1ef" d="M491.372,-225.193C522.148,-213.143 564.481,-196.568 596.097,-184.189"/>
<ellipse fill="none" stroke="#13a1ef" cx="487.646" cy="-226.652" rx="4.00001" ry="4.00001"/>
<polygon fill="#13a1ef" stroke="#13a1ef" points="596.229,-184.138 607.181,-184.682 600.885,-182.315 605.541,-180.492 605.541,-180.492 605.541,-180.492 600.885,-182.315 603.9,-176.302 596.229,-184.138 596.229,-184.138"/>
</g>
<!-- User -->
<g id="node6" class="node"><title>User</title>
<ellipse fill="none" stroke="black" cx="270" cy="-167" rx="33.9411" ry="18.3848"/>
<text text-anchor="middle" x="270" y="-163.4" font-family="Times Roman,serif" font-size="14.00">User</text>
</g>
<!-- Master&#45;&gt;User -->
<g id="edge8" class="edge"><title>Master&#45;&gt;User</title>
<path fill="none" stroke="#c6f191" d="M409.718,-224.122C378.727,-211.452 336.669,-194.257 306.816,-182.052"/>
<polygon fill="#c6f191" stroke="#c6f191" points="409.801,-224.156 417.355,-232.106 414.429,-226.048 419.057,-227.941 419.057,-227.941 419.057,-227.941 414.429,-226.048 420.76,-223.775 409.801,-224.156 409.801,-224.156"/>
<polygon fill="#c6f191" stroke="#c6f191" points="306.449,-181.902 298.896,-173.952 301.821,-180.01 297.193,-178.118 297.193,-178.118 297.193,-178.118 301.821,-180.01 295.49,-182.283 306.449,-181.902 306.449,-181.902"/>
</g>
<!-- Course -->
<g id="node11" class="node"><title>Course</title>
<ellipse fill="none" stroke="black" cx="682" cy="-93" rx="45.9619" ry="18.3848"/>
<text text-anchor="middle" x="682" y="-89.4" font-family="Times Roman,serif" font-size="14.00">Course</text>
</g>
<!-- Master&#45;&gt;Course -->
<g id="edge4" class="edge"><title>Master&#45;&gt;Course</title>
<path fill="none" stroke="#36c2b6" d="M479.111,-219.364C504.987,-199.821 544.737,-170.726 581,-148 601.355,-135.244 624.885,-122.33 644.111,-112.224"/>
<ellipse fill="none" stroke="#36c2b6" cx="475.707" cy="-221.946" rx="4.00002" ry="4.00002"/>
<polygon fill="#36c2b6" stroke="#36c2b6" points="644.303,-112.124 655.25,-111.491 648.737,-109.812 653.17,-107.501 653.17,-107.501 653.17,-107.501 648.737,-109.812 651.09,-103.511 644.303,-112.124 644.303,-112.124"/>
</g>
<!-- Prerequisite -->
<g id="node3" class="node"><title>Prerequisite</title>
<ellipse fill="none" stroke="black" cx="415" cy="-19" rx="70.0036" ry="18.3848"/>
<text text-anchor="middle" x="415" y="-15.4" font-family="Times Roman,serif" font-size="14.00">Prerequisite</text>
</g>
<!-- Pensum&#45;&gt;Course -->
<g id="edge16" class="edge"><title>Pensum&#45;&gt;Course</title>
<path fill="none" stroke="#03e121" d="M654.38,-141.663C658.303,-134.752 662.568,-127.237 666.548,-120.226"/>
<ellipse fill="none" stroke="#03e121" cx="652.356" cy="-145.229" rx="4.00002" ry="4.00002"/>
<polygon fill="#03e121" stroke="#03e121" points="666.801,-119.779 675.651,-113.303 669.269,-115.43 671.737,-111.082 671.737,-111.082 671.737,-111.082 669.269,-115.43 667.824,-108.86 666.801,-119.779 666.801,-119.779"/>
</g>
<!-- User&#45;&gt;Registration -->
<g id="edge24" class="edge"><title>User&#45;&gt;Registration</title>
<path fill="none" stroke="#949bf1" d="M303.162,-151.27C326.266,-140.31 357.317,-125.58 382.419,-113.673"/>
<ellipse fill="none" stroke="#949bf1" cx="299.374" cy="-153.066" rx="4.00002" ry="4.00002"/>
<polygon fill="#949bf1" stroke="#949bf1" points="382.685,-113.547 393.649,-113.327 387.202,-111.404 391.72,-109.261 391.72,-109.261 391.72,-109.261 387.202,-111.404 389.791,-105.195 382.685,-113.547 382.685,-113.547"/>
</g>
<!-- Role -->
<g id="node7" class="node"><title>Role</title>
<ellipse fill="none" stroke="black" cx="152" cy="-93" rx="32.0265" ry="18.3848"/>
<text text-anchor="middle" x="152" y="-89.4" font-family="Times Roman,serif" font-size="14.00">Role</text>
</g>
<!-- User&#45;&gt;Role -->
<g id="edge26" class="edge"><title>User&#45;&gt;Role</title>
<path fill="none" stroke="#3334da" d="M237.701,-150.348C218.665,-139.182 195.038,-124.428 177.339,-112.681"/>
<ellipse fill="none" stroke="#3334da" cx="241.306" cy="-152.439" rx="4.00002" ry="4.00002"/>
<ellipse fill="#3334da" stroke="#3334da" cx="173.949" cy="-110.406" rx="4.00002" ry="4.00002"/>
</g>
<!-- Request -->
<g id="node12" class="node"><title>Request</title>
<ellipse fill="none" stroke="black" cx="51" cy="-93" rx="50.9117" ry="18.3848"/>
<text text-anchor="middle" x="51" y="-89.4" font-family="Times Roman,serif" font-size="14.00">Request</text>
</g>
<!-- User&#45;&gt;Request -->
<g id="edge22" class="edge"><title>User&#45;&gt;Request</title>
<path fill="none" stroke="#bb803e" d="M233.221,-154.572C196.136,-142.041 138.74,-122.647 98.291,-108.98"/>
<ellipse fill="none" stroke="#bb803e" cx="237.129" cy="-155.893" rx="4.00001" ry="4.00001"/>
<polygon fill="#bb803e" stroke="#bb803e" points="98.1261,-108.924 90.0929,-101.459 93.3892,-107.323 88.6523,-105.723 88.6523,-105.723 88.6523,-105.723 93.3892,-107.323 87.2117,-109.986 98.1261,-108.924 98.1261,-108.924"/>
</g>
<!-- UserCourse -->
<g id="node27" class="node"><title>UserCourse</title>
<ellipse fill="none" stroke="black" cx="270" cy="-93" rx="67.8823" ry="18.3848"/>
<text text-anchor="middle" x="270" y="-89.4" font-family="Times Roman,serif" font-size="14.00">UserCourse</text>
</g>
<!-- User&#45;&gt;UserCourse -->
<g id="edge20" class="edge"><title>User&#45;&gt;UserCourse</title>
<path fill="none" stroke="#74c641" d="M270,-140.309C270,-134.377 270,-128.061 270,-122.04"/>
<ellipse fill="none" stroke="#74c641" cx="270" cy="-144.327" rx="4" ry="4"/>
<polygon fill="#74c641" stroke="#74c641" points="270,-121.667 274.5,-111.667 270,-116.667 270,-111.667 270,-111.667 270,-111.667 270,-116.667 265.5,-111.667 270,-121.667 270,-121.667"/>
</g>
<!-- Role&#45;&gt;User -->
<g id="edge32" class="edge"><title>Role&#45;&gt;User</title>
<path fill="none" stroke="#b2f029" d="M185.444,-110.325C203.492,-120.945 225.405,-134.614 242.468,-145.868"/>
<polygon fill="#b2f029" stroke="#b2f029" points="185.053,-110.098 178.663,-101.186 180.728,-107.588 176.404,-105.078 176.404,-105.078 176.404,-105.078 180.728,-107.588 174.145,-108.97 185.053,-110.098 185.053,-110.098"/>
<polygon fill="#b2f029" stroke="#b2f029" points="242.563,-145.932 248.378,-155.229 246.72,-148.709 250.878,-151.487 250.878,-151.487 250.878,-151.487 246.72,-148.709 253.378,-147.746 242.563,-145.932 242.563,-145.932"/>
</g>
<!-- UserRole -->
<g id="node33" class="node"><title>UserRole</title>
<ellipse fill="none" stroke="black" cx="152" cy="-19" rx="53.9477" ry="18.3848"/>
<text text-anchor="middle" x="152" y="-15.4" font-family="Times Roman,serif" font-size="14.00">UserRole</text>
</g>
<!-- Role&#45;&gt;UserRole -->
<g id="edge30" class="edge"><title>Role&#45;&gt;UserRole</title>
<path fill="none" stroke="#a358c2" d="M152,-66.309C152,-60.3769 152,-54.0606 152,-48.0396"/>
<ellipse fill="none" stroke="#a358c2" cx="152" cy="-70.3267" rx="4" ry="4"/>
<polygon fill="#a358c2" stroke="#a358c2" points="152,-47.6674 156.5,-37.6673 152,-42.6674 152,-37.6674 152,-37.6674 152,-37.6674 152,-42.6674 147.5,-37.6674 152,-47.6674 152,-47.6674"/>
</g>
<!-- Task -->
<g id="node8" class="node"><title>Task</title>
<ellipse fill="none" stroke="black" cx="816" cy="-241" rx="32.0265" ry="18.3848"/>
<text text-anchor="middle" x="816" y="-237.4" font-family="Times Roman,serif" font-size="14.00">Task</text>
</g>
<!-- CourseType -->
<g id="node9" class="node"><title>CourseType</title>
<ellipse fill="none" stroke="black" cx="571" cy="-19" rx="67.8823" ry="18.3848"/>
<text text-anchor="middle" x="571" y="-15.4" font-family="Times Roman,serif" font-size="14.00">CourseType</text>
</g>
<!-- RequestType -->
<g id="node10" class="node"><title>RequestType</title>
<ellipse fill="none" stroke="black" cx="939" cy="-241" rx="73.0388" ry="18.3848"/>
<text text-anchor="middle" x="939" y="-237.4" font-family="Times Roman,serif" font-size="14.00">RequestType</text>
</g>
<!-- Course&#45;&gt;Prerequisite -->
<g id="edge44" class="edge"><title>Course&#45;&gt;Prerequisite</title>
<path fill="none" stroke="#17e956" d="M636.263,-80.324C591.292,-67.8599 522.462,-48.7834 473.524,-35.2201"/>
<ellipse fill="none" stroke="#17e956" cx="640.174" cy="-81.4078" rx="4.00001" ry="4.00001"/>
<polygon fill="#17e956" stroke="#17e956" points="473.344,-35.1702 464.909,-28.1628 468.525,-33.8347 463.707,-32.4993 463.707,-32.4993 463.707,-32.4993 468.525,-33.8347 462.505,-36.8358 473.344,-35.1702 473.344,-35.1702"/>
</g>
<!-- Course&#45;&gt;CourseType -->
<g id="edge42" class="edge"><title>Course&#45;&gt;CourseType</title>
<path fill="none" stroke="#3868bc" d="M651.112,-72.4082C636.258,-62.5054 618.454,-50.6361 603.407,-40.6045"/>
<ellipse fill="none" stroke="#3868bc" cx="654.86" cy="-74.9063" rx="4.00002" ry="4.00002"/>
<ellipse fill="#3868bc" stroke="#3868bc" cx="600.036" cy="-38.3572" rx="4.00002" ry="4.00002"/>
</g>
<!-- PlannedPensum -->
<g id="node13" class="node"><title>PlannedPensum</title>
<ellipse fill="none" stroke="black" cx="746" cy="-19" rx="89.0955" ry="18.3848"/>
<text text-anchor="middle" x="746" y="-15.4" font-family="Times Roman,serif" font-size="14.00">PlannedPensum</text>
</g>
<!-- Course&#45;&gt;PlannedPensum -->
<g id="edge46" class="edge"><title>Course&#45;&gt;PlannedPensum</title>
<path fill="none" stroke="#8c08b1" d="M696.998,-68.2473C703.171,-60.6008 710.452,-52.1676 717.519,-44.4733"/>
<ellipse fill="none" stroke="#8c08b1" cx="694.381" cy="-71.5666" rx="4.00002" ry="4.00002"/>
<polygon fill="#8c08b1" stroke="#8c08b1" points="717.618,-44.3682 727.746,-40.1637 721.042,-40.725 724.467,-37.0817 724.467,-37.0817 724.467,-37.0817 721.042,-40.725 721.188,-33.9997 717.618,-44.3682 717.618,-44.3682"/>
</g>
<!-- SemesterRegistration -->
<g id="node14" class="node"><title>SemesterRegistration</title>
<ellipse fill="none" stroke="black" cx="969" cy="-19" rx="116.172" ry="18.3848"/>
<text text-anchor="middle" x="969" y="-15.4" font-family="Times Roman,serif" font-size="14.00">SemesterRegistration</text>
</g>
<!-- Course&#45;&gt;SemesterRegistration -->
<g id="edge48" class="edge"><title>Course&#45;&gt;SemesterRegistration</title>
<path fill="none" stroke="#d862c2" d="M727.366,-79.9384C772.072,-67.9663 841.035,-50.135 893.898,-36.8504"/>
<ellipse fill="none" stroke="#d862c2" cx="723.255" cy="-81.043" rx="4.00001" ry="4.00001"/>
<polygon fill="#d862c2" stroke="#d862c2" points="894.207,-36.7729 905.001,-38.7062 899.057,-35.5571 903.907,-34.3413 903.907,-34.3413 903.907,-34.3413 899.057,-35.5571 902.813,-29.9763 894.207,-36.7729 894.207,-36.7729"/>
</g>
<!-- PlannedPensum&#45;&gt;Course -->
<g id="edge54" class="edge"><title>PlannedPensum&#45;&gt;Course</title>
<path fill="none" stroke="#e6f783" d="M730.783,-44.0245C724.316,-52.0192 716.663,-60.8501 709.32,-68.7862"/>
<ellipse fill="none" stroke="#e6f783" cx="733.423" cy="-40.6823" rx="4.00002" ry="4.00002"/>
<polygon fill="#e6f783" stroke="#e6f783" points="709.163,-68.9512 699.018,-73.1122 705.723,-72.5797 702.283,-76.2083 702.283,-76.2083 702.283,-76.2083 705.723,-72.5797 705.549,-79.3043 709.163,-68.9512 709.163,-68.9512"/>
</g>
<!-- SemesterRegistration&#45;&gt;Course -->
<g id="edge58" class="edge"><title>SemesterRegistration&#45;&gt;Course</title>
<path fill="none" stroke="#5865c0" d="M904.197,-37.2326C852.049,-51.0272 779.909,-69.5555 732.098,-81.3901"/>
<ellipse fill="none" stroke="#5865c0" cx="908.198" cy="-36.1721" rx="4.00001" ry="4.00001"/>
<polygon fill="#5865c0" stroke="#5865c0" points="731.818,-81.4589 721.032,-79.4827 726.963,-82.6554 722.109,-83.8519 722.109,-83.8519 722.109,-83.8519 726.963,-82.6554 723.186,-88.2212 731.818,-81.4589 731.818,-81.4589"/>
</g>
<!-- StudentCourse -->
<g id="node15" class="node"><title>StudentCourse</title>
<ellipse fill="none" stroke="black" cx="1153" cy="-241" rx="84.8528" ry="18.3848"/>
<text text-anchor="middle" x="1153" y="-237.4" font-family="Times Roman,serif" font-size="14.00">StudentCourse</text>
</g>
<!-- ActiveRecord::Base -->
<g id="node20" class="node"><title>ActiveRecord::Base</title>
<ellipse fill="none" stroke="black" cx="591" cy="-343" rx="103.945" ry="18.3848"/>
<text text-anchor="middle" x="591" y="-339.4" font-family="Times Roman,serif" font-size="14.00">ActiveRecord::Base</text>
</g>
<!-- ActiveRecord::Base&#45;&gt;Master -->
<g id="edge10" class="edge"><title>ActiveRecord::Base&#45;&gt;Master</title>
<path fill="none" stroke="black" d="M566.293,-324.999C539.918,-305.783 498.507,-275.612 473.154,-257.141"/>
</g>
<!-- ActiveRecord::Base&#45;&gt;Prerequisite -->
<g id="edge12" class="edge"><title>ActiveRecord::Base&#45;&gt;Prerequisite</title>
<path fill="none" stroke="black" d="M586.837,-324.374C574.478,-270.302 536.877,-114.581 505,-74 491.539,-56.8637 471.146,-43.7744 453.173,-34.6725"/>
</g>
<!-- ActiveRecord::Base&#45;&gt;Registration -->
<g id="edge14" class="edge"><title>ActiveRecord::Base&#45;&gt;Registration</title>
<path fill="none" stroke="black" d="M550.158,-325.853C493.584,-302.055 398.135,-261.72 397,-260 366.288,-213.455 396.935,-144.311 414.929,-111.53"/>
</g>
<!-- ActiveRecord::Base&#45;&gt;Pensum -->
<g id="edge18" class="edge"><title>ActiveRecord::Base&#45;&gt;Pensum</title>
<path fill="none" stroke="black" d="M596.151,-324.498C605.562,-290.695 625.43,-219.333 634.844,-185.519"/>
</g>
<!-- ActiveRecord::Base&#45;&gt;User -->
<g id="edge28" class="edge"><title>ActiveRecord::Base&#45;&gt;User</title>
<path fill="none" stroke="black" d="M552.113,-325.829C530.475,-316.527 502.949,-305.108 478,-296 428.089,-277.78 409.491,-287.453 364,-260 330.39,-239.717 299.74,-205.036 283.091,-184.242"/>
</g>
<!-- ActiveRecord::Base&#45;&gt;Role -->
<g id="edge34" class="edge"><title>ActiveRecord::Base&#45;&gt;Role</title>
<path fill="none" stroke="black" d="M553.955,-325.628C532.19,-315.92 503.94,-304.17 478,-296 406.823,-273.582 380.852,-293.16 314,-260 243.075,-224.82 185.792,-145.617 162.837,-110.423"/>
</g>
<!-- ActiveRecord::Base&#45;&gt;Task -->
<g id="edge36" class="edge"><title>ActiveRecord::Base&#45;&gt;Task</title>
<path fill="none" stroke="black" d="M629.168,-325.697C675.182,-304.838 751.224,-270.365 790.605,-252.512"/>
</g>
<!-- ActiveRecord::Base&#45;&gt;CourseType -->
<g id="edge38" class="edge"><title>ActiveRecord::Base&#45;&gt;CourseType</title>
<path fill="none" stroke="black" d="M589.776,-324.151C587.868,-294.678 584.082,-235.886 581,-186 577.668,-132.079 573.899,-68.3539 572.087,-37.5357"/>
</g>
<!-- ActiveRecord::Base&#45;&gt;RequestType -->
<g id="edge40" class="edge"><title>ActiveRecord::Base&#45;&gt;RequestType</title>
<path fill="none" stroke="black" d="M644.993,-327.174C712.385,-307.422 826.605,-273.943 891.047,-255.055"/>
</g>
<!-- ActiveRecord::Base&#45;&gt;Course -->
<g id="edge50" class="edge"><title>ActiveRecord::Base&#45;&gt;Course</title>
<path fill="none" stroke="black" d="M609.232,-324.74C635.114,-297.384 681.329,-242.868 699,-186 706.842,-160.765 698.096,-130.487 690.525,-111.491"/>
</g>
<!-- ActiveRecord::Base&#45;&gt;Request -->
<g id="edge52" class="edge"><title>ActiveRecord::Base&#45;&gt;Request</title>
<path fill="none" stroke="black" d="M555.134,-325.536C533.295,-315.549 504.57,-303.547 478,-296 381.004,-268.449 345.909,-301.473 254,-260 172.885,-223.398 97.5598,-145.661 66.2683,-110.692"/>
</g>
<!-- ActiveRecord::Base&#45;&gt;PlannedPensum -->
<g id="edge56" class="edge"><title>ActiveRecord::Base&#45;&gt;PlannedPensum</title>
<path fill="none" stroke="black" d="M618.011,-325.052C639.033,-309.882 667.63,-286.439 686,-260 735.451,-188.827 744.237,-80.8483 745.729,-37.7366"/>
</g>
<!-- ActiveRecord::Base&#45;&gt;SemesterRegistration -->
<g id="edge60" class="edge"><title>ActiveRecord::Base&#45;&gt;SemesterRegistration</title>
<path fill="none" stroke="black" d="M691.305,-337.978C805.031,-329.938 980.011,-309.657 1021,-260 1076.18,-193.154 1011.53,-81.2656 982.093,-37.419"/>
</g>
<!-- ActiveRecord::Base&#45;&gt;StudentCourse -->
<g id="edge62" class="edge"><title>ActiveRecord::Base&#45;&gt;StudentCourse</title>
<path fill="none" stroke="black" d="M665.226,-329.982C756.711,-313.871 916.901,-285.444 1054,-260 1065.44,-257.876 1077.62,-255.574 1089.38,-253.329"/>
</g>
</g>
</svg>
